<svg width="79" height="79" viewBox="0 0 79 79" fill="none" xmlns="http://www.w3.org/2000/svg">
<circle cx="39.5" cy="39.5" r="39.5" fill="#DEE9FE"/>
<path fill-rule="evenodd" clip-rule="evenodd" d="M37.8805 28.8987C37.0425 28.8987 36.3297 29.4809 36.1296 30.2657H42.8579C42.6578 29.4809 41.945 28.8987 41.1071 28.8987H37.8805ZM44.7589 30.2658H47.2351C49.8614 30.2658 52 32.4304 52 35.0886C52 35.0886 51.925 36.2139 51.9 37.781C51.8974 37.905 51.8374 38.0265 51.7386 38.0999C51.1371 38.5442 50.5868 38.9113 50.5368 38.9366C48.4607 40.329 46.0483 41.3088 43.4782 41.7961C43.3107 41.829 43.1456 41.7417 43.0605 41.5923C42.3402 40.3442 40.9945 39.5316 39.4937 39.5316C38.003 39.5316 36.6448 40.3354 35.9032 41.5847C35.8169 41.7316 35.6543 41.8164 35.488 41.7847C32.9392 41.2961 30.5268 40.3177 28.4632 38.9493L27.2626 38.1139C27.1626 38.0506 27.1001 37.9367 27.1001 37.8101C27.0625 37.1645 27 35.0886 27 35.0886C27 32.4304 29.1386 30.2658 31.7649 30.2658H34.2286C34.4662 28.4304 36.0045 27 37.8804 27H41.1071C42.983 27 44.5213 28.4304 44.7589 30.2658ZM51.5748 40.519L51.5248 40.5443C48.9985 42.2405 45.9595 43.3671 42.7704 43.8354C42.3202 43.8987 41.8699 43.6076 41.7449 43.1519C41.4697 42.1139 40.5818 41.4304 39.5188 41.4304H39.5063H39.4812C38.4182 41.4304 37.5303 42.1139 37.2551 43.1519C37.1301 43.6076 36.6798 43.8987 36.2296 43.8354C33.0405 43.3671 30.0015 42.2405 27.4752 40.5443C27.4627 40.5316 27.3377 40.4557 27.2376 40.519C27.1251 40.5823 27.1251 40.7342 27.1251 40.7342L27.2126 47.1898C27.2126 49.8481 29.3387 51.9999 31.965 51.9999H47.0225C49.6488 51.9999 51.7749 49.8481 51.7749 47.1898L51.8749 40.7342C51.8749 40.7342 51.8749 40.5823 51.7624 40.519C51.6998 40.481 51.6248 40.4937 51.5748 40.519ZM40.4317 45.8228C40.4317 46.3544 40.019 46.7721 39.4938 46.7721C38.981 46.7721 38.5558 46.3544 38.5558 45.8228V44.1899C38.5558 43.6709 38.981 43.2405 39.4938 43.2405C40.019 43.2405 40.4317 43.6709 40.4317 44.1899V45.8228Z" fill="#2971F9"/>
</svg>
