<svg width="79" height="79" viewBox="0 0 79 79" fill="none" xmlns="http://www.w3.org/2000/svg">
<circle cx="39.5" cy="39.5" r="39.5" fill="#FFF8E6"/>
<path d="M46.896 41.9295C46.5723 42.2466 46.4236 42.7051 46.4973 43.1547L47.6084 49.369C47.7021 49.8957 47.4822 50.4288 47.046 50.7332C46.6185 51.0489 46.0499 51.0868 45.5837 50.8342L40.0481 47.9165C39.8557 47.8129 39.6419 47.7574 39.4232 47.751H39.0845C38.967 47.7687 38.852 47.8066 38.7471 47.8647L33.2103 50.7963C32.9366 50.9352 32.6266 50.9845 32.3229 50.9352C31.583 50.7938 31.0893 50.0814 31.2105 49.3299L32.3229 43.1156C32.3966 42.6621 32.2479 42.2011 31.9242 41.879L27.411 37.4582C27.0336 37.0882 26.9024 36.5324 27.0748 36.031C27.2423 35.5308 27.6698 35.1658 28.1859 35.0837L34.3976 34.173C34.8701 34.1237 35.285 33.8332 35.4975 33.4038L38.2346 27.7326C38.2996 27.6063 38.3834 27.4901 38.4846 27.3916L38.5971 27.3031C38.6558 27.2375 38.7233 27.1831 38.7983 27.1389L38.9345 27.0884L39.147 27H39.6732C40.1431 27.0493 40.5568 27.3335 40.773 27.7578L43.5464 33.4038C43.7464 33.8168 44.1351 34.1035 44.5838 34.173L50.7955 35.0837C51.3204 35.1595 51.7591 35.5257 51.9328 36.031C52.0966 36.5375 51.9553 37.0932 51.5704 37.4582L46.896 41.9295Z" fill="#FFC01D"/>
</svg>
