<svg width="79" height="79" viewBox="0 0 79 79" fill="none" xmlns="http://www.w3.org/2000/svg">
<circle cx="39.5" cy="39.5" r="39.5" fill="#E2F7E6"/>
<path fill-rule="evenodd" clip-rule="evenodd" d="M46.7111 34.8767H52C52 30.5359 49.4556 28 45.1444 28H33.8556C29.5444 28 27 30.5359 27 34.8214V44.1786C27 48.4641 29.5444 51 33.8556 51H45.1444C49.4556 51 52 48.4641 52 44.1786V43.78H46.7111C44.2565 43.78 42.2667 41.7968 42.2667 39.3505C42.2667 36.9042 44.2565 34.921 46.7111 34.921V34.8767ZM46.7112 36.7814H51.0667C51.5822 36.7814 52 37.1979 52 37.7116V40.9451C51.994 41.4564 51.5797 41.8694 51.0667 41.8753H46.8112C45.5685 41.892 44.4819 41.0441 44.2 39.8378C44.0589 39.089 44.257 38.3163 44.7414 37.7268C45.2257 37.1373 45.9467 36.7912 46.7112 36.7814ZM46.8999 40.181H47.311C47.8387 40.181 48.2666 39.7547 48.2666 39.2287C48.2666 38.7027 47.8387 38.2764 47.311 38.2764H46.8999C46.6475 38.2734 46.4044 38.3713 46.2249 38.5481C46.0453 38.7249 45.9443 38.9661 45.9443 39.2176C45.9443 39.7454 46.3704 40.175 46.8999 40.181ZM32.9224 34.8768H39.9779C40.5056 34.8768 40.9335 34.4504 40.9335 33.9245C40.9335 33.3985 40.5056 32.9721 39.9779 32.9721H32.9224C32.3989 32.9721 31.9729 33.3918 31.9668 33.9134C31.9668 34.4412 32.3928 34.8707 32.9224 34.8768Z" fill="#3DC55E"/>
</svg>
