<svg width="144" height="33" viewBox="0 0 144 33" fill="none" xmlns="http://www.w3.org/2000/svg">
<path d="M16.5559 15.66H16.4436L12.3798 0H0V4.32H1.26837C1.78998 4.32 2.66129 4.86216 2.66129 5.31684V21.7722C2.66129 22.2264 1.78998 22.68 1.26837 22.68H0V27H10.1129V22.68H7.4516V5.4H7.5703L13.2745 27H17.7487L23.5284 5.4H23.4193V22.68H21.2903V27H33V22.68H31.6949C31.211 22.68 30.3387 22.2264 30.3387 21.7717V5.31684C30.3387 4.86216 31.211 4.32 31.6949 4.32H33V0H20.658L16.5559 15.66Z" fill="#2971F9"/>
<path d="M7.4516 6.91296C5.85483 6.60138 3.7258 6.19962 2.66129 5.72388V21.7721C2.66129 22.2263 1.78998 22.6799 1.26837 22.6799H0V26.9999H10.1129V22.6799H7.4516V6.91296Z" fill="#387DFE"/>
<path d="M30.3387 21.7716V5.72388C28.2096 6.3681 26.0806 6.87408 23.4193 7.20888V22.6799H21.2903V26.9999H32.9999V22.6799H31.6949C31.211 22.6799 30.3387 22.2263 30.3387 21.7716Z" fill="#387DFE"/>
<path d="M18.6837 7.66524L16.5558 15.6599H16.4434L14.3357 7.66524C12.1045 7.58046 10.0372 7.48164 8.03271 7.15332L13.2744 26.9999H17.7485L22.9844 7.4244C21.5781 7.59558 20.1873 7.60746 18.6837 7.66524Z" fill="#387DFE"/>
<path d="M7.4516 12.36C5.85483 11.9215 3.7258 11.3572 2.66129 10.6865V21.7716C2.66129 22.2263 1.78998 22.6799 1.26837 22.6799H0V26.9999H10.1129V22.6799H7.4516V12.36Z" fill="#538DFC"/>
<path d="M17.1365 13.4542L16.5558 15.6601H16.4435L15.8687 13.4542C13.6625 13.4202 11.5856 13.3619 9.57581 12.9941L13.2745 27.0001H17.7486L21.4356 13.2155C20.0363 13.3916 18.6183 13.4315 17.1365 13.4542Z" fill="#538DFC"/>
<path d="M30.3387 21.7717V10.686C28.7419 11.5922 26.0806 12.3044 23.4193 12.7753V22.68H21.2903V27H32.9999V22.68H31.6949C31.211 22.68 30.3387 22.2264 30.3387 21.7717Z" fill="#538DFC"/>
<path d="M61.854 11.556V27H58.092V17.738L54.638 27H51.602L48.126 17.716V27H44.364V11.556H48.808L53.142 22.248L57.432 11.556H61.854ZM63.8113 20.84C63.8113 19.5787 64.046 18.4713 64.5153 17.518C64.9993 16.5647 65.652 15.8313 66.4733 15.318C67.2946 14.8047 68.2113 14.548 69.2233 14.548C70.0886 14.548 70.844 14.724 71.4893 15.076C72.1493 15.428 72.6553 15.89 73.0073 16.462V14.724H76.7693V27H73.0073V25.262C72.6406 25.834 72.1273 26.296 71.4673 26.648C70.822 27 70.0666 27.176 69.2013 27.176C68.204 27.176 67.2946 26.9193 66.4733 26.406C65.652 25.878 64.9993 25.1373 64.5153 24.184C64.046 23.216 63.8113 22.1013 63.8113 20.84ZM73.0073 20.862C73.0073 19.9233 72.7433 19.1827 72.2153 18.64C71.702 18.0973 71.0713 17.826 70.3233 17.826C69.5753 17.826 68.9373 18.0973 68.4093 18.64C67.896 19.168 67.6393 19.9013 67.6393 20.84C67.6393 21.7787 67.896 22.5267 68.4093 23.084C68.9373 23.6267 69.5753 23.898 70.3233 23.898C71.0713 23.898 71.702 23.6267 72.2153 23.084C72.7433 22.5413 73.0073 21.8007 73.0073 20.862ZM86.993 27L83.253 21.852V27H79.491V10.72H83.253V19.718L86.971 14.724H91.613L86.509 20.884L91.657 27H86.993ZM92.3426 20.84C92.3426 19.5787 92.5772 18.4713 93.0466 17.518C93.5306 16.5647 94.1832 15.8313 95.0046 15.318C95.8259 14.8047 96.7426 14.548 97.7546 14.548C98.6199 14.548 99.3752 14.724 100.021 15.076C100.681 15.428 101.187 15.89 101.539 16.462V14.724H105.301V27H101.539V25.262C101.172 25.834 100.659 26.296 99.9986 26.648C99.3532 27 98.5979 27.176 97.7326 27.176C96.7352 27.176 95.8259 26.9193 95.0046 26.406C94.1832 25.878 93.5306 25.1373 93.0466 24.184C92.5772 23.216 92.3426 22.1013 92.3426 20.84ZM101.539 20.862C101.539 19.9233 101.275 19.1827 100.747 18.64C100.233 18.0973 99.6026 17.826 98.8546 17.826C98.1066 17.826 97.4686 18.0973 96.9406 18.64C96.4272 19.168 96.1706 19.9013 96.1706 20.84C96.1706 21.7787 96.4272 22.5267 96.9406 23.084C97.4686 23.6267 98.1066 23.898 98.8546 23.898C99.6026 23.898 100.233 23.6267 100.747 23.084C101.275 22.5413 101.539 21.8007 101.539 20.862ZM111.784 16.77C112.224 16.0953 112.774 15.5673 113.434 15.186C114.094 14.79 114.828 14.592 115.634 14.592V18.574H114.6C113.662 18.574 112.958 18.7793 112.488 19.19C112.019 19.586 111.784 20.29 111.784 21.302V27H108.022V14.724H111.784V16.77ZM129.972 14.724L122.272 32.83H118.224L121.04 26.582L116.046 14.724H120.248L123.086 22.402L125.902 14.724H129.972ZM136.921 27.176C135.718 27.176 134.633 26.9193 133.665 26.406C132.711 25.8927 131.956 25.1593 131.399 24.206C130.856 23.2527 130.585 22.138 130.585 20.862C130.585 19.6007 130.863 18.4933 131.421 17.54C131.978 16.572 132.741 15.8313 133.709 15.318C134.677 14.8047 135.762 14.548 136.965 14.548C138.167 14.548 139.253 14.8047 140.221 15.318C141.189 15.8313 141.951 16.572 142.509 17.54C143.066 18.4933 143.345 19.6007 143.345 20.862C143.345 22.1233 143.059 23.238 142.487 24.206C141.929 25.1593 141.159 25.8927 140.177 26.406C139.209 26.9193 138.123 27.176 136.921 27.176ZM136.921 23.92C137.639 23.92 138.248 23.656 138.747 23.128C139.26 22.6 139.517 21.8447 139.517 20.862C139.517 19.8793 139.267 19.124 138.769 18.596C138.285 18.068 137.683 17.804 136.965 17.804C136.231 17.804 135.623 18.068 135.139 18.596C134.655 19.1093 134.413 19.8647 134.413 20.862C134.413 21.8447 134.647 22.6 135.117 23.128C135.601 23.656 136.202 23.92 136.921 23.92Z" fill="#2971F9"/>
</svg>
